<?xml version="1.0" encoding="UTF-8" standalone="no"?>
<!-- Created with Inkscape (http://www.inkscape.org/) -->

<svg
   width="148.214mm"
   height="212.01102mm"
   viewBox="0 0 148.214 212.01102"
   version="1.1"
   id="svg298"
   sodipodi:docname="curve.svg"
   inkscape:version="1.2.2 (b0a8486541, 2022-12-01)"
   inkscape:export-filename="curve.svg"
   inkscape:export-xdpi="96"
   inkscape:export-ydpi="96"
   xmlns:inkscape="http://www.inkscape.org/namespaces/inkscape"
   xmlns:sodipodi="http://sodipodi.sourceforge.net/DTD/sodipodi-0.dtd"
   xmlns="http://www.w3.org/2000/svg"
   xmlns:svg="http://www.w3.org/2000/svg">
  <sodipodi:namedview
     id="namedview300"
     pagecolor="#ffffff"
     bordercolor="#666666"
     borderopacity="1.0"
     inkscape:showpageshadow="2"
     inkscape:pageopacity="0.0"
     inkscape:pagecheckerboard="0"
     inkscape:deskcolor="#d1d1d1"
     inkscape:document-units="mm"
     showgrid="false"
     inkscape:zoom="8"
     inkscape:cx="512.6875"
     inkscape:cy="773.4375"
     inkscape:window-width="1580"
     inkscape:window-height="1438"
     inkscape:window-x="2560"
     inkscape:window-y="0"
     inkscape:window-maximized="1"
     inkscape:current-layer="g1703" />
  <defs
     id="defs295" />
  <g
     inkscape:label="Layer 1"
     inkscape:groupmode="layer"
     id="layer1">
    <g
       id="g1703"
       transform="rotate(180,74.10677,105.15893)">
      <path
         d="m 38.509288,45.105634 c 0.910917,1.887819 3.304891,3.631821 6.32157,3.872349 1.187449,0.09468 2.730237,0.327915 3.428732,0.518315 0.698499,0.190399 2.465063,0.54204 3.925341,0.781347 1.460269,0.239308 3.288906,0.65343 4.063835,0.920358 0.774919,0.266927 2.480864,0.646775 3.790983,0.843876 4.310896,0.648555 5.940614,1.815977 7.985042,5.720064 0.40235,0.768349 0.808888,1.454088 0.902788,1.523938 0.09395,0.06985 0.302614,0.428281 0.464054,0.796334 0.40826,0.930751 3.042197,2.895434 4.405416,3.286104 0.623039,0.17855 1.283214,0.439268 1.467094,0.579293 0.19126,0.145651 1.876129,0.242469 3.937227,0.226859 3.458757,-0.0262 5.852493,-0.330646 9.571509,-1.21853 0.908049,-0.216789 2.394075,-0.491773 3.302124,-0.610815 0.908049,-0.119043 2.151073,-0.399109 2.762622,-0.622185 1.531639,-0.5587 4.518228,-0.638999 5.492165,-0.147794 0.65481,0.330251 0.78426,0.567634 0.92139,1.688269 0.27794,2.271322 1.36892,3.675062 3.77755,4.860168 0.34925,0.171842 1.75691,1.044953 3.12798,1.94045 1.40598,0.918311 3.34418,1.923962 4.4452,2.306836 5.3842,1.872338 10.29999,4.085568 14.58154,6.564458 0.59746,0.345913 1.60067,0.763418 2.22932,0.927592 1.784,0.465895 4.24808,1.261737 4.44139,1.724117 0.0968,0.231568 0.24311,1.162945 0.30061,2.070994 0.19678,3.107484 0.078,4.995066 3.43787,12.203912 0.42322,0.908049 1.01973,1.993673 1.3255,2.412773 0.30578,0.419099 0.859,1.289178 1.22989,1.933214 0.37091,0.64404 1.4224,2.05054 2.3363,3.1259 1.49465,1.75875 3.69228,4.77025 3.69228,5.05913 0,0.062 0.95367,1.697 2.11925,3.63337 3.49126,5.80003 6.01775,10.69352 7.75973,15.0306 0.57882,1.44114 0.99122,2.71983 0.91622,2.84117 -0.075,0.12133 0.22565,0.9997 0.66818,1.95182 0.44253,0.95213 0.95074,2.30235 1.12913,3.00085 0.1784,0.6985 0.85481,3.32743 1.50327,5.84202 1.25781,4.87729 1.78854,9.44746 1.3193,11.35642 -0.21595,0.87855 -2.6742,3.75687 -3.20859,3.75687 -0.43259,0 -3.12938,1.77469 -4.20956,2.77038 -0.62019,0.57166 -1.23406,1.03921 -1.36426,1.03921 -0.77578,0 -4.41311,8.25396 -5.09323,11.55743 -0.11505,0.5588 -0.41781,1.93028 -0.67283,3.04788 -0.66332,2.90698 -1.19517,11.24593 -0.54175,14.65542 0.51961,2.71147 1.73943,4.36434 2.55614,4.89946 0.30284,0.19843 1.25307,0.52477 2.1115,0.72502 1.8371,0.42857 4.22196,1.64394 5.29476,2.69854 3.50909,3.44952 5.45219,8.34537 5.85029,14.74019 0.26704,4.28952 0.41642,5.8161 0.76688,7.84396 0.20235,1.17082 0.36792,2.9427 0.36794,3.93723 8e-5,4.98468 1.39598,12.03813 3.06699,15.49673 0.26884,0.55645 0.48886,1.20108 0.48886,1.43247 0,0.69228 3.23588,4.50431 4.39147,5.17333 0.58813,0.34049 1.7732,0.84724 2.63291,1.12603 1.47438,0.47811 3.65992,0.85583 4.19212,1.36442 0.15809,0.0817 0.15788,0.0805 0.18718,0.0975 0.16756,0.0566 0.12099,0.0399 0.28182,0.0977 l 0.003,-210.659537 -5.1e-4,-0.584977 c -49.08026,-7.05e-4 -92.343813,-0.02644 -141.421707,-0.02375 -1.753838,2.090864 0.223159,5.738384 1.238175,7.864918 z"
         id="path1049"
         transform="translate(-30.479793,-38.820654)"
         sodipodi:nodetypes="cssssssssssssssssssssssssssssssssscsssssscsccssccsccccccccc" />
    </g>
  </g>
</svg>
