<?xml version="1.0" encoding="UTF-8" standalone="no"?>
<!-- Created with Inkscape (http://www.inkscape.org/) -->

<svg
   width="210mm"
   height="297mm"
   viewBox="0 0 210 297"
   version="1.1"
   id="svg2136"
   inkscape:version="1.2.2 (b0a8486541, 2022-12-01)"
   sodipodi:docname="board2.svg"
   xmlns:inkscape="http://www.inkscape.org/namespaces/inkscape"
   xmlns:sodipodi="http://sodipodi.sourceforge.net/DTD/sodipodi-0.dtd"
   xmlns="http://www.w3.org/2000/svg"
   xmlns:svg="http://www.w3.org/2000/svg">
  <sodipodi:namedview
     id="namedview2138"
     pagecolor="#ffffff"
     bordercolor="#666666"
     borderopacity="1.0"
     inkscape:showpageshadow="2"
     inkscape:pageopacity="0.0"
     inkscape:pagecheckerboard="0"
     inkscape:deskcolor="#d1d1d1"
     inkscape:document-units="mm"
     showgrid="false"
     inkscape:zoom="1.684765"
     inkscape:cx="123.75613"
     inkscape:cy="624.41943"
     inkscape:window-width="1920"
     inkscape:window-height="1053"
     inkscape:window-x="0"
     inkscape:window-y="27"
     inkscape:window-maximized="1"
     inkscape:current-layer="layer1" />
  <defs
     id="defs2133">
    <inkscape:path-effect
       effect="fill_between_many"
       method="originald"
       linkedpaths="#path276,0,1"
       id="path-effect2153" />
    <inkscape:path-effect
       effect="fill_between_many"
       method="originald"
       linkedpaths="#path276,0,1"
       id="path-effect2637" />
    <inkscape:path-effect
       effect="fill_between_many"
       method="originald"
       linkedpaths="#path276,0,1"
       id="path-effect2643" />
    <inkscape:path-effect
       effect="fill_between_many"
       method="originald"
       linkedpaths="#path2645,0,1|"
       id="path-effect2648" />
  </defs>
  <g
     inkscape:label="Layer 1"
     inkscape:groupmode="layer"
     id="layer1">
    <path
       inkscape:original-d="M 0,0"
       inkscape:path-effect="#path-effect2153"
       d="M 0,0"
       id="path2155"
       class="UnoptimicedTransforms" />
    <path
       d="M 0,0"
       id="path2639"
       inkscape:original-d="M 0,0"
       inkscape:path-effect="#path-effect2637"
       class="UnoptimicedTransforms" />
    <path
       inkscape:original-d="M 0,0"
       inkscape:path-effect="#path-effect2648"
       d="m 0.03307292,89.568693 c -0.0194834,0.0043 -0.02948372,0.01775 -0.02945557,0.03876 0.0012699,0.947828 0.00253345,206.235447 -0.00516764,207.391987 h 0.11523844 c 2.2845e-4,1e-5 2.8613e-4,0.001 5.1677e-4,0.001 0.002337,0 0.78140841,-1e-5 0.79013265,0 h 0.007235 c 2.13881573,8.8e-4 170.15200743,-8.1e-4 170.59785743,-0.002 0.067,-1.8e-4 0.061,-0.053 0.061,-0.19534 -0.105,-4.12814 -0.12747,-6.35231 -0.21822,-10.23344 -0.24832,-0.59727 -0.0467,-2.20183 -0.16191,-3.919 -0.32166,-4.79549 -0.60587,-7.32315 -3.93843,-10.90701 -0.41933,-0.45093 -0.93039,-1.13385 -1.13585,-1.51774 -0.37151,-0.69419 -6.35383,-6.32291 -6.53139,-6.14536 -0.0512,0.0512 -0.51857,-0.30213 -1.03869,-0.78496 -1.1319,-1.05076 -3.73042,-2.86133 -4.10673,-2.86133 -0.14737,0 -0.26768,-0.1053 -0.26768,-0.23409 0,-0.29835 -2.98215,-1.79782 -3.57549,-1.79782 -0.24545,0 -0.48497,-0.11637 -0.53227,-0.25839 -0.0473,-0.14201 -0.42865,-0.30291 -0.84698,-0.35811 -0.41833,-0.0552 -1.10329,-0.23481 -1.52239,-0.39895 -0.95393,-0.3736 -3.56527,-0.12038 -4.4452,0.43098 -0.34925,0.21884 -1.07336,1.53762 -1.65839,2.14564 -1.26792,1.31777 -3.6433,2.81827 -5.40346,3.227 -1.72275,0.40005 -3.74501,-0.0176 -5.62223,-0.25133 -0.83083,-0.10344 -3.37463,-0.90687 -3.62449,-0.98099 -0.23953,-0.071 -1.46992,-0.45716 -2.71094,-1.01596 -1.24101,-0.5588 -2.33453,-1.01596 -2.42983,-1.01596 -0.0953,0 -0.82315,-0.29868 -1.61747,-0.66352 -0.79432,-0.36484 -2.07313,-0.86501 -2.84221,-1.11208 -0.76907,-0.24707 -2.42641,-0.96829 -3.68297,-1.60249 -1.25657,-0.6342 -2.45644,-1.19103 -2.66599,-1.23713 -0.20955,-0.0461 -0.43808,-0.15429 -0.50798,-0.24029 -0.23245,-0.28622 -2.25987,-1.24024 -2.6355,-1.24024 -0.20347,0 -0.40815,-0.0859 -0.45475,-0.19068 -0.13416,-0.30187 -3.49783,-1.99863 -5.30045,-2.67374 -0.90325,-0.33827 -2.270745,-0.70648 -3.039095,-0.81804 -2.011569,-0.29204 -8.546791,-0.34792 -9.724987,-0.0832 -1.219254,0.27395 -2.878478,1.38053 -4.791956,3.19567 -1.863829,1.76804 -3.320353,2.34145 -5.198649,2.0469 -5.116079,-0.80228 -9.543823,-3.52773 -15.532385,-9.56014 -1.854111,-1.86768 -3.676505,-3.81325 -4.049366,-4.32376 -0.37286,-0.5105 -0.98357,-1.27124 -1.357539,-1.69034 -1.221667,-1.36908 -2.819607,-4.75536 -3.355351,-7.11171 -0.127047,-0.5588 -0.306542,-2.45388 -0.398942,-4.21111 -0.157755,-3.00006 -0.212066,-3.25302 -0.89607,-4.14962 -0.878545,-1.1516 -2.916829,-2.47632 -4.478796,-2.91093 -0.628649,-0.17492 -1.657516,-0.55582 -2.286165,-0.84646 -0.62865,-0.29064 -1.942853,-0.74451 -2.920752,-1.00873 -0.977899,-0.26421 -2.006766,-0.54515 -2.286166,-0.62425 -0.279402,-0.0791 -0.793833,-0.18364 -1.143082,-0.23254 -0.34925,-0.0489 -1.778002,-0.39322 -3.175,-0.76481 -1.396999,-0.3716 -3.168362,-0.82882 -3.936711,-1.01596 -0.768349,-0.18714 -2.368923,-0.57812 -3.556372,-0.8692 -1.187449,-0.29108 -2.829136,-0.68524 -3.648356,-0.87592 -1.827338,-0.42531 -2.187188,-0.76551 -2.473751,-2.33939 -0.123485,-0.67821 -0.337205,-1.46158 -0.474906,-1.74098 -0.313626,-0.63636 -1.43398,-4.55732 -1.678451,-5.87354 -0.100577,-0.5415 -0.387459,-1.46371 -0.63717,-2.04897 -0.386949,-0.90688 -1.267494,-4.58581 -2.298568,-9.60355 -0.143532,-0.6985 -0.345306,-1.61282 -0.448551,-2.03192 -0.322696,-1.31011 -0.753993,-4.05364 -0.433818,-5.72977 0.398741,-2.08712 0.361428,-2.97223 1.238582,-3.14766 0.400693,-0.0801 2.394751,-1.33488 3.338291,-1.78559 2.725834,-1.30205 5.378839,-3.31871 6.930122,-7.37102 0.213915,-0.5588 0.5882,-1.47363 0.831473,-2.03243 0.902685,-2.07349 1.44122,-4.63783 2.833419,-13.49117 0.303268,-1.92858 0.173817,-6.18362 -0.256832,-8.44393 -0.391849,-2.05667 -1.624445,-4.50412 -2.482019,-4.92838 -0.396075,-0.19595 -1.509067,-0.49569 -2.473234,-0.66611 -0.96417,-0.17042 -2.107068,-0.49301 -2.539897,-0.71675 -0.916797,-0.4739 -2.680991,-1.89476 -2.687691,-2.16473 -0.0025,-0.10194 -0.460861,-0.78768 -1.019059,-1.52393 -0.558198,-0.73627 -1.015867,-1.43526 -1.016475,-1.5534 -6.02e-4,-0.11813 -0.223246,-0.52726 -0.495061,-0.90899 -0.271814,-0.38172 -0.678033,-1.19972 -0.902787,-1.81746 -0.224753,-0.61773 -0.637219,-1.75139 -0.91674,-2.51974 -0.580424,-1.59548 -0.946748,-3.17556 -1.118795,-4.82606 -0.06553,-0.62865 -0.231954,-1.8861 -0.369486,-2.79414 -0.137532,-0.90805 -0.306241,-2.85124 -0.375171,-4.31809 -0.06893,-1.46685 -0.176975,-3.00963 -0.240295,-3.42873 -0.06331,-0.4191 -0.187789,-2.59086 -0.276469,-4.82606 -0.29523,-7.44146 -1.15204,-11.09198 -3.204973,-13.654978 -0.420754,-0.52529 -0.938222,-1.369485 -1.1498,-1.875855 C 10.21025,93.817096 7.76392,91.976618 3.8023519,91.143274 1.9182586,90.746942 1.1876873,90.455435 0.43769938,89.801237 0.23382133,89.6234 0.09152311,89.555841 0.03307292,89.568693 Z"
       id="path2650"
       class="UnoptimicedTransforms" />
    <path
       id="path2645"
       d="m 0.03307292,89.568693 c -0.0194834,0.0043 -0.02948372,0.01775 -0.02945557,0.03876 0.0012699,0.947828 0.00253345,206.235447 -0.00516764,207.391987 h 0.11523844 c 2.2845e-4,1e-5 2.8613e-4,0.001 5.1677e-4,0.001 0.002337,0 0.78140841,-1e-5 0.79013265,0 h 0.007235 c 2.13881573,8.8e-4 170.15200743,-8.1e-4 170.59785743,-0.002 0.067,-1.8e-4 0.061,-0.053 0.061,-0.19534 -0.105,-4.12814 -0.12747,-6.35231 -0.21822,-10.23344 -0.24832,-0.59727 -0.0467,-2.20183 -0.16191,-3.919 -0.32166,-4.79549 -0.60587,-7.32315 -3.93843,-10.90701 -0.41933,-0.45093 -0.93039,-1.13385 -1.13585,-1.51774 -0.37151,-0.69419 -6.35383,-6.32291 -6.53139,-6.14536 -0.0512,0.0512 -0.51857,-0.30213 -1.03869,-0.78496 -1.1319,-1.05076 -3.73042,-2.86133 -4.10673,-2.86133 -0.14737,0 -0.26768,-0.1053 -0.26768,-0.23409 0,-0.29835 -2.98215,-1.79782 -3.57549,-1.79782 -0.24545,0 -0.48497,-0.11637 -0.53227,-0.25839 -0.0473,-0.14201 -0.42865,-0.30291 -0.84698,-0.35811 -0.41833,-0.0552 -1.10329,-0.23481 -1.52239,-0.39895 -0.95393,-0.3736 -3.56527,-0.12038 -4.4452,0.43098 -0.34925,0.21884 -1.07336,1.53762 -1.65839,2.14564 -1.26792,1.31777 -3.6433,2.81827 -5.40346,3.227 -1.72275,0.40005 -3.74501,-0.0176 -5.62223,-0.25133 -0.83083,-0.10344 -3.37463,-0.90687 -3.62449,-0.98099 -0.23953,-0.071 -1.46992,-0.45716 -2.71094,-1.01596 -1.24101,-0.5588 -2.33453,-1.01596 -2.42983,-1.01596 -0.0953,0 -0.82315,-0.29868 -1.61747,-0.66352 -0.79432,-0.36484 -2.07313,-0.86501 -2.84221,-1.11208 -0.76907,-0.24707 -2.42641,-0.96829 -3.68297,-1.60249 -1.25657,-0.6342 -2.45644,-1.19103 -2.66599,-1.23713 -0.20955,-0.0461 -0.43808,-0.15429 -0.50798,-0.24029 -0.23245,-0.28622 -2.25987,-1.24024 -2.6355,-1.24024 -0.20347,0 -0.40815,-0.0859 -0.45475,-0.19068 -0.13416,-0.30187 -3.49783,-1.99863 -5.30045,-2.67374 -0.90325,-0.33827 -2.270745,-0.70648 -3.039095,-0.81804 -2.011569,-0.29204 -8.546791,-0.34792 -9.724987,-0.0832 -1.219254,0.27395 -2.878478,1.38053 -4.791956,3.19567 -1.863829,1.76804 -3.320353,2.34145 -5.198649,2.0469 -5.116079,-0.80228 -9.543823,-3.52773 -15.532385,-9.56014 -1.854111,-1.86768 -3.676505,-3.81325 -4.049366,-4.32376 -0.37286,-0.5105 -0.98357,-1.27124 -1.357539,-1.69034 -1.221667,-1.36908 -2.819607,-4.75536 -3.355351,-7.11171 -0.127047,-0.5588 -0.306542,-2.45388 -0.398942,-4.21111 -0.157755,-3.00006 -0.212066,-3.25302 -0.89607,-4.14962 -0.878545,-1.1516 -2.916829,-2.47632 -4.478796,-2.91093 -0.628649,-0.17492 -1.657516,-0.55582 -2.286165,-0.84646 -0.62865,-0.29064 -1.942853,-0.74451 -2.920752,-1.00873 -0.977899,-0.26421 -2.006766,-0.54515 -2.286166,-0.62425 -0.279402,-0.0791 -0.793833,-0.18364 -1.143082,-0.23254 -0.34925,-0.0489 -1.778002,-0.39322 -3.175,-0.76481 -1.396999,-0.3716 -3.168362,-0.82882 -3.936711,-1.01596 -0.768349,-0.18714 -2.368923,-0.57812 -3.556372,-0.8692 -1.187449,-0.29108 -2.829136,-0.68524 -3.648356,-0.87592 -1.827338,-0.42531 -2.187188,-0.76551 -2.473751,-2.33939 -0.123485,-0.67821 -0.337205,-1.46158 -0.474906,-1.74098 -0.313626,-0.63636 -1.43398,-4.55732 -1.678451,-5.87354 -0.100577,-0.5415 -0.387459,-1.46371 -0.63717,-2.04897 -0.386949,-0.90688 -1.267494,-4.58581 -2.298568,-9.60355 -0.143532,-0.6985 -0.345306,-1.61282 -0.448551,-2.03192 -0.322696,-1.31011 -0.753993,-4.05364 -0.433818,-5.72977 0.398741,-2.08712 0.361428,-2.97223 1.238582,-3.14766 0.400693,-0.0801 2.394751,-1.33488 3.338291,-1.78559 2.725834,-1.30205 5.378839,-3.31871 6.930122,-7.37102 0.213915,-0.5588 0.5882,-1.47363 0.831473,-2.03243 0.902685,-2.07349 1.44122,-4.63783 2.833419,-13.49117 0.303268,-1.92858 0.173817,-6.18362 -0.256832,-8.44393 -0.391849,-2.05667 -1.624445,-4.50412 -2.482019,-4.92838 -0.396075,-0.19595 -1.509067,-0.49569 -2.473234,-0.66611 -0.96417,-0.17042 -2.107068,-0.49301 -2.539897,-0.71675 -0.916797,-0.4739 -2.680991,-1.89476 -2.687691,-2.16473 -0.0025,-0.10194 -0.460861,-0.78768 -1.019059,-1.52393 -0.558198,-0.73627 -1.015867,-1.43526 -1.016475,-1.5534 -6.02e-4,-0.11813 -0.223246,-0.52726 -0.495061,-0.90899 -0.271814,-0.38172 -0.678033,-1.19972 -0.902787,-1.81746 -0.224753,-0.61773 -0.637219,-1.75139 -0.91674,-2.51974 -0.580424,-1.59548 -0.946748,-3.17556 -1.118795,-4.82606 -0.06553,-0.62865 -0.231954,-1.8861 -0.369486,-2.79414 -0.137532,-0.90805 -0.306241,-2.85124 -0.375171,-4.31809 -0.06893,-1.46685 -0.176975,-3.00963 -0.240295,-3.42873 -0.06331,-0.4191 -0.187789,-2.59086 -0.276469,-4.82606 -0.29523,-7.44146 -1.15204,-11.09198 -3.204973,-13.654978 -0.420754,-0.52529 -0.938222,-1.369485 -1.1498,-1.875855 C 10.21025,93.817096 7.76392,91.976618 3.8023519,91.143274 1.9182586,90.746942 1.1876873,90.455435 0.43769938,89.801237 0.23382133,89.6234 0.09152311,89.555841 0.03307292,89.568693 Z m 0.53175048,0.869198 c 0.5853542,0.539471 2.6472377,1.33997 3.4514689,1.33997 0.8170508,0 4.499764,1.950786 5.1567912,2.731616 0.3550313,0.42193 1.1831965,1.808397 1.8407145,3.081465 0.657513,1.273069 1.295462,2.315105 1.417485,2.315105 0.122022,0 0.297073,0.342613 0.389123,0.761713 0.09205,0.4191 0.24988,0.76222 0.350883,0.76222 0.682928,0 1.796808,5.66985 1.803508,9.18084 0.0044,2.31483 0.630717,11.24816 0.923457,13.17129 0.07442,0.48895 0.123251,1.22455 0.108521,1.63504 -0.09625,2.68242 1.771241,9.61412 3.201872,11.88506 0.328275,0.5211 0.596862,1.02492 0.596862,1.11932 0,0.0944 0.285854,0.54618 0.635104,1.00407 0.349249,0.45789 0.634586,0.9269 0.634586,1.04231 0,0.11542 0.22858,0.35262 0.50798,0.5271 0.279399,0.17449 0.513781,0.45908 0.520381,0.63252 0.0066,0.17344 0.642093,0.8197 1.412317,1.43609 1.362224,1.09015 3.197504,1.79944 4.663282,1.80144 0.884882,0.001 2.195246,0.84767 2.634981,1.70222 1.241173,2.41201 1.822776,6.51534 1.414901,9.98079 -0.523672,4.44928 -0.786,6.22772 -1.19786,8.12767 -0.136277,0.62865 -0.250215,1.31438 -0.253215,1.52393 -0.01653,1.1513 -2.178098,7.12429 -3.645772,10.07432 -0.556339,1.11825 -3.498795,3.93319 -4.282943,4.35286 -0.255002,0.13647 -1.227453,0.9177 -2.161108,1.04992 -2.447261,0.34658 -2.575177,0.51201 -3.058211,3.95428 -0.07841,0.5588 -0.240829,1.45829 -0.360702,1.99936 -0.11988,0.54108 -0.158569,1.13819 -0.0863,1.32653 0.07227,0.18834 0.164268,0.88839 0.204638,1.55598 0.09706,1.60482 0.225882,2.41145 0.700216,4.38888 0.541816,2.25876 1.140168,5.00045 1.358573,6.22287 0.09984,0.5588 0.398255,1.52372 0.663009,2.14406 0.384023,0.8998 1.079778,3.18712 1.588017,5.2219 0.03489,0.1397 0.118938,0.42556 0.187068,0.63511 1.011971,3.11267 1.223181,3.87373 1.223181,4.41265 0,1.33903 0.409671,1.87709 1.571481,2.0624 0.602408,0.0961 1.781279,0.38767 2.619478,0.64854 1.809708,0.56322 5.991232,1.51257 6.663159,1.51257 0.260678,0 0.582487,0.1024 0.715202,0.22738 0.252232,0.23753 1.646094,0.60273 4.432288,1.16168 2.308564,0.46314 6.305327,1.6433 7.367509,2.17558 0.489738,0.24542 1.393944,0.58158 2.009179,0.74724 1.638251,0.44114 3.766713,1.7236 4.266923,2.57039 0.239699,0.40578 0.525525,0.73742 0.635104,0.73742 0.109577,0 0.199471,1.04875 0.199471,2.33009 0,2.89063 0.59455,6.20783 1.471745,8.21139 0.366978,0.8382 0.729022,1.58064 0.804602,1.65054 0.07559,0.0699 0.308473,0.46892 0.517797,0.88677 0.45434,0.90692 3.216973,4.29398 4.844666,5.93969 4.471735,4.52125 8.344667,7.90598 9.046476,7.90598 0.08237,0 0.276395,0.16648 0.431498,0.37 0.477237,0.62623 4.961577,2.69302 6.993889,3.22358 1.240591,0.32382 2.320685,0.45135 3.039608,0.35915 1.389862,-0.17834 3.208855,-1.06935 3.927925,-1.92392 0.991149,-1.17791 3.954995,-3.27274 4.874638,-3.44526 0.495366,-0.093 2.98174,-0.11241 5.524727,-0.0434 5.225963,0.14183 5.657183,0.24662 10.084653,2.45101 1.42638,0.71018 2.71326,1.21715 2.85978,1.12655 0.14649,-0.0906 0.19974,-0.0567 0.11834,0.0749 -0.0814,0.13164 0.21544,0.38805 0.65939,0.56999 0.44395,0.18194 1.33681,0.60644 1.98437,0.94309 0.64755,0.33665 1.36193,0.61185 1.5875,0.61185 0.22556,0 0.41031,0.0975 0.41031,0.21653 0,0.24056 3.28604,1.81591 3.78789,1.81591 0.295,0 1.90991,0.6659 5.35626,2.20916 0.76835,0.34406 1.62539,0.71554 1.90479,0.82528 0.2794,0.10974 0.79384,0.32606 1.14308,0.48059 1.86473,0.82505 5.29519,1.41618 8.27805,1.42678 l 3.07062,0.0109 1.9451,-0.98702 c 1.0829,-0.54951 2.37409,-1.45017 2.91248,-2.03192 1.46595,-1.584 2.68225,-2.40988 3.81527,-2.59106 1.33659,-0.21373 4.42361,0.47498 6.18154,1.37925 1.69899,0.87395 3.85535,2.12393 4.02301,2.33215 0.0699,0.0867 0.29843,0.23735 0.50798,0.33435 0.20955,0.097 0.79176,0.48848 1.29397,0.87023 0.50221,0.38175 1.53108,1.16335 2.28617,1.73685 1.41714,1.07633 2.14837,1.72147 4.56096,4.02404 1.43895,1.37334 2.17196,2.31169 2.68821,3.44217 0.15949,0.34925 0.81713,1.24469 1.46141,1.98954 0.64429,0.74483 1.1715,1.4511 1.1715,1.56941 0,0.11832 0.14552,0.36575 0.3235,0.55036 0.64281,0.66672 -2.21949,3.88279 -2.09032,6.33294 0.0708,1.34258 0.27893,2.78237 0.34023,2.97649 0.0613,0.1941 -0.37982,1.45628 -0.28842,1.86911 3.50543,3.81017 3.06936,8.02589 4.12782,8.80938 v 5.2e-4 c 0.46171,0.19589 -32.26724,-0.32956 -170.6593555,0.21084 C 0.97676215,266.05736 0.49000807,90.368943 0.5648234,90.437891 Z"
       class="UnoptimicedTransforms"
       sodipodi:nodetypes="ssccssssccsssssssssssssssssssssscscssssssssssssssssssssssssscssssssssssssssssssssssssssssssssssssssssssscssscsssssssssssssssssssssssssssssscscssssssssssssscsssssssssssssssccccs" />
  </g>
</svg>
